<svg width="175" height="209" viewBox="0 0 175 209" fill="none" xmlns="http://www.w3.org/2000/svg">
<circle cx="145.91" cy="99.4265" r="30.0901" fill="url(#paint0_linear)" fill-opacity="0.5"/>
<circle cx="54.6454" cy="155.349" r="53.6513" fill="url(#paint1_linear)" fill-opacity="0.5"/>
<path d="M119.428 167.781H89.053C88.928 170.281 87.178 171.781 84.928 171.781H77.428C75.053 171.781 73.178 169.656 73.303 167.781H43.428C42.303 167.781 41.428 168.781 41.428 169.781V171.781C41.428 176.281 44.928 179.781 49.428 179.781H113.428C117.803 179.781 121.428 176.281 121.428 171.781V169.781C121.428 168.781 120.428 167.781 119.428 167.781ZM113.428 121.781C113.428 118.531 110.678 115.781 107.428 115.781H55.428C52.053 115.781 49.428 118.531 49.428 121.781V163.781H113.428V121.781ZM105.428 155.781H57.428V123.781H105.428V155.781Z" fill="#D3D3D3"/>
<path d="M89.053 167.781V166.281C88.2537 166.281 87.5948 166.908 87.5549 167.706L89.053 167.781ZM73.303 167.781L74.7997 167.881C74.8273 167.467 74.682 167.06 74.3983 166.757C74.1147 166.453 73.7181 166.281 73.303 166.281V167.781ZM49.428 163.781H47.928C47.928 164.61 48.5996 165.281 49.428 165.281V163.781ZM113.428 163.781V165.281C114.256 165.281 114.928 164.61 114.928 163.781H113.428ZM105.428 155.781V157.281C106.256 157.281 106.928 156.61 106.928 155.781H105.428ZM57.428 155.781H55.928C55.928 156.61 56.5996 157.281 57.428 157.281V155.781ZM57.428 123.781V122.281C56.5996 122.281 55.928 122.953 55.928 123.781H57.428ZM105.428 123.781H106.928C106.928 122.953 106.256 122.281 105.428 122.281V123.781ZM119.428 166.281H89.053V169.281H119.428V166.281ZM87.5549 167.706C87.5097 168.61 87.183 169.23 86.7622 169.624C86.3359 170.023 85.7156 170.281 84.928 170.281V173.281C86.3904 173.281 87.7701 172.79 88.8125 171.814C89.8604 170.833 90.4713 169.452 90.5511 167.856L87.5549 167.706ZM84.928 170.281H77.428V173.281H84.928V170.281ZM77.428 170.281C76.6963 170.281 76.0065 169.952 75.4995 169.435C74.976 168.9 74.7718 168.299 74.7997 167.881L71.8063 167.682C71.7092 169.139 72.38 170.537 73.3564 171.534C74.3495 172.548 75.7847 173.281 77.428 173.281V170.281ZM73.303 166.281H43.428V169.281H73.303V166.281ZM43.428 166.281C41.415 166.281 39.928 168.014 39.928 169.781H42.928C42.928 169.71 42.9671 169.572 43.0891 169.444C43.2025 169.326 43.3249 169.281 43.428 169.281V166.281ZM39.928 169.781V171.781H42.928V169.781H39.928ZM39.928 171.781C39.928 177.11 44.0996 181.281 49.428 181.281V178.281C45.7564 178.281 42.928 175.453 42.928 171.781H39.928ZM49.428 181.281H113.428V178.281H49.428V181.281ZM113.428 181.281C118.616 181.281 122.928 177.125 122.928 171.781H119.928C119.928 175.438 116.99 178.281 113.428 178.281V181.281ZM122.928 171.781V169.781H119.928V171.781H122.928ZM122.928 169.781C122.928 168.793 122.449 167.931 121.864 167.346C121.278 166.76 120.416 166.281 119.428 166.281V169.281C119.44 169.281 119.578 169.302 119.742 169.467C119.907 169.631 119.928 169.769 119.928 169.781H122.928ZM114.928 121.781C114.928 117.703 111.506 114.281 107.428 114.281V117.281C109.85 117.281 111.928 119.36 111.928 121.781H114.928ZM107.428 114.281H55.428V117.281H107.428V114.281ZM55.428 114.281C51.2043 114.281 47.928 117.723 47.928 121.781H50.928C50.928 119.339 52.9017 117.281 55.428 117.281V114.281ZM47.928 121.781V163.781H50.928V121.781H47.928ZM49.428 165.281H113.428V162.281H49.428V165.281ZM114.928 163.781V121.781H111.928V163.781H114.928ZM105.428 154.281H57.428V157.281H105.428V154.281ZM58.928 155.781V123.781H55.928V155.781H58.928ZM57.428 125.281H105.428V122.281H57.428V125.281ZM103.928 123.781V155.781H106.928V123.781H103.928Z" fill="#686868"/>
<circle cx="74.9426" cy="40.8771" r="40.8771" fill="url(#paint2_linear)" fill-opacity="0.5"/>
<path d="M86.1946 74.2563C86.8782 74.4516 87.4641 74.061 87.6594 73.4751L101.038 27.5766C101.234 26.893 100.843 26.2094 100.257 26.1118L94.3 24.354C93.6165 24.1586 93.0305 24.5493 92.8352 25.1352L79.4563 71.0336C79.261 71.7172 79.6516 72.3032 80.2375 72.4985L86.1946 74.2563ZM75.0618 63.3188L79.3586 58.729C79.8469 58.2407 79.7493 57.5571 79.261 57.0688L70.4719 49.2563L79.261 41.5415C79.7493 41.0532 79.8469 40.2719 79.3586 39.8813L75.0618 35.2915C74.6711 34.8032 73.8899 34.8032 73.4016 35.2915L59.3391 48.4751C58.8508 48.8657 58.8508 49.6469 59.3391 50.1352L73.4016 63.3188C73.8899 63.8071 74.6711 63.8071 75.0618 63.3188ZM107.093 63.3188L121.156 50.1352C121.644 49.7446 121.644 48.8657 121.156 48.4751L107.093 35.2915C106.605 34.8032 105.823 34.8032 105.433 35.2915L101.136 39.7836C100.745 40.2719 100.745 41.0532 101.234 41.5415L110.12 49.2563L101.234 57.0688C100.745 57.5571 100.648 58.2407 101.136 58.729L105.433 63.3188C105.823 63.8071 106.605 63.8071 107.093 63.3188Z" fill="#DFF5C3"/>
<path d="M86.1946 74.2563L85.77 75.695L85.7825 75.6986L86.1946 74.2563ZM87.6594 73.4751L89.0824 73.9494L89.0915 73.9223L89.0995 73.8948L87.6594 73.4751ZM101.038 27.5766L102.478 27.9964L102.481 27.9887L101.038 27.5766ZM100.257 26.1118L99.8326 27.5504L99.9203 27.5763L100.01 27.5914L100.257 26.1118ZM94.3 24.354L94.7246 22.9152L94.7121 22.9117L94.3 24.354ZM92.8352 25.1352L91.4122 24.6609L91.4031 24.688L91.3951 24.7154L92.8352 25.1352ZM79.4563 71.0336L78.0162 70.6139L78.014 70.6216L79.4563 71.0336ZM80.2375 72.4985L79.7632 73.9215L79.788 73.9298L79.813 73.9372L80.2375 72.4985ZM75.0618 63.3188L73.9667 62.2937L73.9269 62.3362L73.8905 62.3818L75.0618 63.3188ZM79.3586 58.729L78.298 57.6683L78.2805 57.6858L78.2636 57.7038L79.3586 58.729ZM79.261 57.0688L80.3216 56.0081L80.2905 55.977L80.2575 55.9477L79.261 57.0688ZM70.4719 49.2563L69.4824 48.129L68.2062 49.2492L69.4754 50.3774L70.4719 49.2563ZM79.261 41.5415L80.2505 42.6688L80.2872 42.6366L80.3216 42.6021L79.261 41.5415ZM79.3586 39.8813L78.2636 40.9064L78.3373 40.9852L78.4216 41.0526L79.3586 39.8813ZM75.0618 35.2915L73.8905 36.2285L73.9269 36.274L73.9667 36.3166L75.0618 35.2915ZM73.4016 35.2915L74.4275 36.3858L74.4452 36.3692L74.4623 36.3521L73.4016 35.2915ZM59.3391 48.4751L60.2762 49.6464L60.3221 49.6096L60.365 49.5694L59.3391 48.4751ZM59.3391 50.1352L58.2785 51.1959L58.2956 51.213L58.3132 51.2295L59.3391 50.1352ZM73.4016 63.3188L74.4623 62.2581L74.4452 62.241L74.4275 62.2245L73.4016 63.3188ZM107.093 63.3188L106.067 62.2245L106.049 62.241L106.032 62.2581L107.093 63.3188ZM121.156 50.1352L120.218 48.9639L120.173 49.0007L120.13 49.0409L121.156 50.1352ZM121.156 48.4751L120.13 49.5694L120.173 49.6096L120.218 49.6464L121.156 48.4751ZM107.093 35.2915L106.032 36.3521L106.049 36.3692L106.067 36.3858L107.093 35.2915ZM105.433 35.2915L106.517 36.3283L106.563 36.2803L106.604 36.2285L105.433 35.2915ZM101.136 39.7836L100.052 38.7468L100.006 38.7948L99.9647 38.8466L101.136 39.7836ZM101.234 41.5415L100.173 42.6021L100.21 42.6395L100.25 42.6742L101.234 41.5415ZM110.12 49.2563L111.111 50.3829L112.4 49.2492L111.104 48.1236L110.12 49.2563ZM101.234 57.0688L100.243 55.9422L100.207 55.9741L100.173 56.0081L101.234 57.0688ZM101.136 58.729L102.231 57.7038L102.214 57.6858L102.197 57.6683L101.136 58.729ZM105.433 63.3188L106.604 62.3818L106.568 62.3362L106.528 62.2937L105.433 63.3188ZM85.7825 75.6986C87.3266 76.1398 88.6633 75.2069 89.0824 73.9494L86.2364 73.0007C86.2483 72.9649 86.2828 72.9038 86.3659 72.8563C86.4083 72.832 86.4573 72.8155 86.5074 72.8095C86.5583 72.8035 86.5936 72.8103 86.6067 72.814L85.7825 75.6986ZM89.0995 73.8948L102.478 27.9964L99.5983 27.1568L86.2194 73.0553L89.0995 73.8948ZM102.481 27.9887C102.867 26.635 102.158 24.9079 100.504 24.6322L100.01 27.5914C99.7775 27.5525 99.6611 27.4112 99.6238 27.3427C99.584 27.2698 99.5842 27.2059 99.596 27.1645L102.481 27.9887ZM100.682 24.6731L94.7246 22.9153L93.8755 25.7926L99.8326 27.5504L100.682 24.6731ZM94.7121 22.9117C93.168 22.4705 91.8314 23.4033 91.4122 24.6609L94.2582 25.6095C94.2463 25.6454 94.2118 25.7065 94.1287 25.754C94.0863 25.7782 94.0373 25.7948 93.9872 25.8008C93.9364 25.8068 93.901 25.8 93.888 25.7962L94.7121 22.9117ZM91.3951 24.7154L78.0162 70.6139L80.8964 71.4534L94.2753 25.555L91.3951 24.7154ZM78.014 70.6216C77.5728 72.1657 78.5057 73.5023 79.7632 73.9215L80.7119 71.0755C80.7477 71.0874 80.8088 71.1219 80.8563 71.205C80.8806 71.2474 80.8971 71.2964 80.9031 71.3465C80.9091 71.3973 80.9023 71.4327 80.8986 71.4457L78.014 70.6216ZM79.813 73.9372L85.7701 75.695L86.6191 72.8176L80.6621 71.0598L79.813 73.9372ZM76.1568 64.3439L80.4537 59.7541L78.2636 57.7038L73.9667 62.2937L76.1568 64.3439ZM80.4193 59.7896C80.971 59.238 81.2324 58.5133 81.1708 57.7743C81.112 57.0679 80.7706 56.4571 80.3216 56.0081L78.2003 58.1295C78.2396 58.1687 78.1912 58.1439 78.1812 58.0234C78.176 57.9607 78.1836 57.8865 78.2111 57.8123C78.2386 57.7376 78.2761 57.6901 78.298 57.6683L80.4193 59.7896ZM80.2575 55.9477L71.4685 48.1352L69.4754 50.3774L78.2644 58.1899L80.2575 55.9477ZM71.4615 50.3836L80.2505 42.6688L78.2715 40.4141L69.4824 48.129L71.4615 50.3836ZM80.3216 42.6021C80.8023 42.1215 81.1167 41.4763 81.1712 40.7944C81.2272 40.0944 81.0018 39.2749 80.2957 38.71L78.4216 41.0526C78.3269 40.9768 78.2564 40.8759 78.2168 40.7721C78.1795 40.6745 78.1775 40.5969 78.1808 40.5551C78.1841 40.5136 78.1935 40.4927 78.1956 40.4883C78.1981 40.4829 78.1996 40.4815 78.2003 40.4808L80.3216 42.6021ZM80.4537 38.8562L76.1568 34.2663L73.9667 36.3166L78.2636 40.9064L80.4537 38.8562ZM76.2331 34.3544C75.1829 33.0417 73.3412 33.2305 72.341 34.2308L74.4623 36.3521C74.4227 36.3917 74.3575 36.4252 74.2683 36.4252C74.1762 36.4252 74.0144 36.3834 73.8905 36.2285L76.2331 34.3544ZM72.3757 34.1972L58.3132 47.3807L60.365 49.5694L74.4275 36.3858L72.3757 34.1972ZM58.4021 47.3037C57.0894 48.3539 57.2782 50.1956 58.2785 51.1959L60.3998 49.0745C60.4393 49.1141 60.4729 49.1793 60.4729 49.2685C60.4729 49.3606 60.4311 49.5224 60.2762 49.6464L58.4021 47.3037ZM58.3132 51.2295L72.3757 64.4131L74.4275 62.2245L60.365 49.0409L58.3132 51.2295ZM72.341 64.3795C73.3412 65.3797 75.1829 65.5685 76.2331 64.2558L73.8905 62.3818C74.0144 62.2268 74.1762 62.185 74.2683 62.185C74.3575 62.185 74.4227 62.2186 74.4623 62.2581L72.341 64.3795ZM108.119 64.4131L122.181 51.2295L120.13 49.0409L106.067 62.2245L108.119 64.4131ZM122.093 51.3065C122.768 50.7662 123.022 49.972 123.022 49.3051C123.022 48.6383 122.768 47.844 122.093 47.3037L120.218 49.6464C120.031 49.4967 120.022 49.3372 120.022 49.3051C120.022 49.273 120.031 49.1136 120.218 48.9639L122.093 51.3065ZM122.181 47.3807L108.119 34.1972L106.067 36.3858L120.13 49.5694L122.181 47.3807ZM108.154 34.2308C107.153 33.2305 105.312 33.0417 104.262 34.3544L106.604 36.2285C106.48 36.3834 106.318 36.4252 106.226 36.4252C106.137 36.4252 106.072 36.3917 106.032 36.3521L108.154 34.2308ZM104.349 34.2546L100.052 38.7468L102.22 40.8205L106.517 36.3283L104.349 34.2546ZM99.9647 38.8466C99.1252 39.896 99.1125 41.5416 100.173 42.6021L102.294 40.4808C102.341 40.5272 102.353 40.579 102.354 40.6049C102.355 40.6221 102.353 40.6641 102.307 40.7207L99.9647 38.8466ZM100.25 42.6742L109.137 50.389L111.104 48.1236L102.217 40.4087L100.25 42.6742ZM109.13 48.1297L100.243 55.9422L102.224 58.1954L111.111 50.3829L109.13 48.1297ZM100.173 56.0081C99.724 56.4571 99.3826 57.0679 99.3238 57.7743C99.2622 58.5133 99.5237 59.238 100.075 59.7896L102.197 57.6683C102.218 57.6901 102.256 57.7376 102.284 57.8123C102.311 57.8865 102.319 57.9607 102.313 58.0234C102.303 58.1439 102.255 58.1687 102.294 58.1295L100.173 56.0081ZM100.041 59.7541L104.338 64.3439L106.528 62.2937L102.231 57.7038L100.041 59.7541ZM104.262 64.2558C105.312 65.5685 107.153 65.3797 108.154 64.3795L106.032 62.2581C106.072 62.2186 106.137 62.185 106.226 62.185C106.318 62.185 106.48 62.2268 106.604 62.3818L104.262 64.2558Z" fill="#686868"/>
<path d="M155.226 86.8364C155.226 82.7114 151.851 79.3364 147.726 79.3364C143.507 79.3364 140.226 82.7114 140.226 86.8364C140.226 90.3052 142.476 93.2114 145.57 94.0552C145.476 95.5552 145.195 96.7739 144.539 97.5239C143.132 99.3052 139.945 99.6802 136.57 99.9614C133.945 100.149 131.132 100.43 128.976 101.555V88.0552C131.976 87.1177 134.226 84.2114 134.226 80.8364C134.226 76.7114 130.851 73.3364 126.726 73.3364C122.507 73.3364 119.226 76.7114 119.226 80.8364C119.226 84.2114 121.382 87.1177 124.476 88.0552V106.711C121.382 107.649 119.226 110.555 119.226 113.836C119.226 118.055 122.507 121.336 126.726 121.336C130.851 121.336 134.226 118.055 134.226 113.836C134.226 110.649 132.164 107.93 129.351 106.899C129.632 106.43 130.101 105.961 130.757 105.586C132.257 104.836 134.601 104.649 136.945 104.461C140.976 104.086 145.382 103.618 148.101 100.336C149.414 98.7427 150.07 96.5864 150.07 93.9614C153.07 93.0239 155.226 90.2114 155.226 86.8364ZM126.726 79.3364C127.476 79.3364 128.226 80.0864 128.226 80.8364C128.226 81.6802 127.476 82.3364 126.726 82.3364C125.882 82.3364 125.226 81.6802 125.226 80.8364C125.226 80.0864 125.882 79.3364 126.726 79.3364ZM126.726 115.336C125.882 115.336 125.226 114.68 125.226 113.836C125.226 113.086 125.882 112.336 126.726 112.336C127.476 112.336 128.226 113.086 128.226 113.836C128.226 114.68 127.476 115.336 126.726 115.336ZM147.726 85.3364C148.476 85.3364 149.226 86.0864 149.226 86.8364C149.226 87.6802 148.476 88.3364 147.726 88.3364C146.882 88.3364 146.226 87.6802 146.226 86.8364C146.226 86.0864 146.882 85.3364 147.726 85.3364Z" fill="#9182CC"/>
<path d="M145.57 94.0552L147.067 94.1487L147.143 92.9295L145.965 92.608L145.57 94.0552ZM144.539 97.5239L143.41 96.5362L143.385 96.5647L143.361 96.5945L144.539 97.5239ZM136.57 99.9614L136.677 101.458L136.686 101.457L136.694 101.456L136.57 99.9614ZM128.976 101.555H127.476V104.03L129.67 102.885L128.976 101.555ZM128.976 88.0552L128.529 86.6235L127.476 86.9524V88.0552H128.976ZM124.476 88.0552H125.976V86.9424L124.911 86.6196L124.476 88.0552ZM124.476 106.711L124.911 108.147L125.976 107.824V106.711H124.476ZM129.351 106.899L128.065 106.127L127.132 107.683L128.835 108.307L129.351 106.899ZM130.757 105.586L130.087 104.245L130.049 104.263L130.013 104.284L130.757 105.586ZM136.945 104.461L137.064 105.957L137.074 105.956L137.084 105.955L136.945 104.461ZM148.101 100.336L149.256 101.293L149.259 101.29L148.101 100.336ZM150.07 93.9614L149.622 92.5297L148.57 92.8586V93.9614H150.07ZM156.726 86.8364C156.726 81.883 152.68 77.8364 147.726 77.8364V80.8364C151.023 80.8364 153.726 83.5399 153.726 86.8364H156.726ZM147.726 77.8364C142.667 77.8364 138.726 81.8953 138.726 86.8364H141.726C141.726 83.5276 144.348 80.8364 147.726 80.8364V77.8364ZM138.726 86.8364C138.726 90.9594 141.408 94.4748 145.175 95.5023L145.965 92.608C143.545 91.948 141.726 89.6509 141.726 86.8364H138.726ZM144.073 93.9616C143.982 95.4213 143.713 96.1897 143.41 96.5362L145.667 98.5117C146.677 97.3581 146.971 95.6891 147.067 94.1487L144.073 93.9616ZM143.361 96.5945C142.964 97.0975 142.205 97.5281 140.926 97.8507C139.666 98.1682 138.141 98.3253 136.445 98.4666L136.694 101.456C138.373 101.316 140.13 101.145 141.659 100.76C143.169 100.379 144.707 99.7316 145.716 98.4534L143.361 96.5945ZM136.463 98.4652C133.879 98.6498 130.756 98.9347 128.282 100.225L129.67 102.885C131.509 101.926 134.011 101.648 136.677 101.458L136.463 98.4652ZM130.476 101.555V88.0552H127.476V101.555H130.476ZM129.423 89.4869C133.041 88.3564 135.726 84.8764 135.726 80.8364H132.726C132.726 83.5465 130.911 85.879 128.529 86.6235L129.423 89.4869ZM135.726 80.8364C135.726 75.883 131.68 71.8364 126.726 71.8364V74.8364C130.023 74.8364 132.726 77.5399 132.726 80.8364H135.726ZM126.726 71.8364C121.667 71.8364 117.726 75.8953 117.726 80.8364H120.726C120.726 77.5276 123.348 74.8364 126.726 74.8364V71.8364ZM117.726 80.8364C117.726 84.8554 120.299 88.3567 124.041 89.4907L124.911 86.6196C122.466 85.8786 120.726 83.5674 120.726 80.8364H117.726ZM122.976 88.0552V106.711H125.976V88.0552H122.976ZM124.041 105.276C120.309 106.407 117.726 109.9 117.726 113.836H120.726C120.726 111.21 122.455 108.891 124.911 108.147L124.041 105.276ZM117.726 113.836C117.726 118.884 121.679 122.836 126.726 122.836V119.836C123.336 119.836 120.726 117.227 120.726 113.836H117.726ZM126.726 122.836C131.667 122.836 135.726 118.896 135.726 113.836H132.726C132.726 117.215 130.035 119.836 126.726 119.836V122.836ZM135.726 113.836C135.726 109.987 133.24 106.727 129.867 105.491L128.835 108.307C131.087 109.133 132.726 111.31 132.726 113.836H135.726ZM130.637 107.671C130.771 107.448 131.041 107.152 131.502 106.889L130.013 104.284C129.161 104.771 128.494 105.412 128.065 106.127L130.637 107.671ZM131.428 106.928C131.969 106.658 132.748 106.452 133.763 106.296C134.765 106.141 135.88 106.051 137.064 105.957L136.825 102.966C135.666 103.059 134.437 103.157 133.307 103.33C132.189 103.502 131.045 103.765 130.087 104.245L131.428 106.928ZM137.084 105.955C140.983 105.592 146.076 105.131 149.256 101.293L146.946 99.3794C144.689 102.104 140.969 102.581 136.806 102.968L137.084 105.955ZM149.259 101.29C150.851 99.3571 151.57 96.8305 151.57 93.9614H148.57C148.57 96.3424 147.976 98.1282 146.943 99.3829L149.259 101.29ZM150.517 95.3931C154.142 94.2603 156.726 90.8686 156.726 86.8364H153.726C153.726 89.5543 151.997 91.7876 149.622 92.5297L150.517 95.3931ZM126.726 80.8364C126.695 80.8364 126.672 80.8325 126.658 80.8293C126.645 80.8262 126.64 80.8235 126.643 80.8246C126.645 80.8257 126.652 80.8293 126.663 80.8369C126.673 80.8444 126.685 80.8541 126.697 80.8658C126.708 80.8775 126.718 80.8893 126.726 80.8999C126.733 80.9105 126.737 80.9177 126.738 80.92C126.739 80.9223 126.736 80.9172 126.733 80.9041C126.73 80.8907 126.726 80.8678 126.726 80.8364H129.726C129.726 79.9736 129.31 79.2363 128.818 78.7445C128.326 78.2527 127.589 77.8364 126.726 77.8364V80.8364ZM126.726 80.8364C126.726 80.8303 126.727 80.8236 126.728 80.8172C126.73 80.811 126.731 80.8069 126.732 80.8052C126.733 80.8037 126.732 80.8046 126.73 80.8076C126.728 80.8106 126.725 80.8149 126.719 80.8198C126.714 80.8248 126.709 80.8293 126.703 80.8332C126.697 80.837 126.693 80.8392 126.69 80.8402C126.688 80.8412 126.689 80.8404 126.694 80.8393C126.7 80.8381 126.71 80.8364 126.726 80.8364V83.8364C128.244 83.8364 129.726 82.5681 129.726 80.8364H126.726ZM126.726 80.8364C126.718 80.8364 126.713 80.8357 126.711 80.8353C126.709 80.8349 126.709 80.8347 126.71 80.8351C126.713 80.836 126.716 80.8383 126.72 80.8422C126.724 80.846 126.726 80.8499 126.727 80.8522C126.728 80.8532 126.728 80.853 126.727 80.8511C126.727 80.8492 126.726 80.8445 126.726 80.8364H123.726C123.726 82.5086 125.054 83.8364 126.726 83.8364V80.8364ZM126.726 80.8364C126.726 80.852 126.724 80.8627 126.723 80.8682C126.722 80.8735 126.721 80.8747 126.722 80.8724C126.723 80.87 126.726 80.8655 126.729 80.8597C126.733 80.8539 126.738 80.8482 126.743 80.843C126.748 80.8379 126.752 80.8343 126.755 80.8322C126.758 80.83 126.759 80.8298 126.757 80.8305C126.756 80.8313 126.752 80.8329 126.745 80.8343C126.739 80.8357 126.732 80.8364 126.726 80.8364V77.8364C124.994 77.8364 123.726 79.3188 123.726 80.8364H126.726ZM126.726 113.836C126.718 113.836 126.713 113.836 126.711 113.835C126.709 113.835 126.709 113.835 126.71 113.835C126.713 113.836 126.716 113.838 126.72 113.842C126.724 113.846 126.726 113.85 126.727 113.852C126.728 113.853 126.728 113.853 126.727 113.851C126.727 113.849 126.726 113.844 126.726 113.836H123.726C123.726 115.509 125.054 116.836 126.726 116.836V113.836ZM126.726 113.836C126.726 113.852 126.724 113.863 126.723 113.868C126.722 113.874 126.721 113.875 126.722 113.872C126.723 113.87 126.726 113.865 126.729 113.86C126.733 113.854 126.738 113.848 126.743 113.843C126.748 113.838 126.752 113.834 126.755 113.832C126.758 113.83 126.759 113.83 126.757 113.831C126.756 113.831 126.752 113.833 126.745 113.834C126.739 113.836 126.732 113.836 126.726 113.836V110.836C124.994 110.836 123.726 112.319 123.726 113.836H126.726ZM126.726 113.836C126.695 113.836 126.672 113.833 126.658 113.829C126.645 113.826 126.64 113.824 126.643 113.825C126.645 113.826 126.652 113.829 126.663 113.837C126.673 113.844 126.685 113.854 126.697 113.866C126.708 113.878 126.718 113.889 126.726 113.9C126.733 113.91 126.737 113.918 126.738 113.92C126.739 113.922 126.736 113.917 126.733 113.904C126.73 113.891 126.726 113.868 126.726 113.836H129.726C129.726 112.974 129.31 112.236 128.818 111.745C128.326 111.253 127.589 110.836 126.726 110.836V113.836ZM126.726 113.836C126.726 113.83 126.727 113.824 126.728 113.817C126.73 113.811 126.731 113.807 126.732 113.805C126.733 113.804 126.732 113.805 126.73 113.808C126.728 113.811 126.725 113.815 126.719 113.82C126.714 113.825 126.709 113.829 126.703 113.833C126.697 113.837 126.693 113.839 126.69 113.84C126.688 113.841 126.689 113.84 126.694 113.839C126.7 113.838 126.71 113.836 126.726 113.836V116.836C128.244 116.836 129.726 115.568 129.726 113.836H126.726ZM147.726 86.8364C147.695 86.8364 147.672 86.8325 147.658 86.8293C147.645 86.8262 147.64 86.8235 147.643 86.8246C147.645 86.8257 147.652 86.8293 147.663 86.8369C147.673 86.8444 147.685 86.8541 147.697 86.8658C147.708 86.8775 147.718 86.8893 147.726 86.8999C147.733 86.9105 147.737 86.9177 147.738 86.92C147.739 86.9223 147.736 86.9172 147.733 86.9041C147.73 86.8907 147.726 86.8678 147.726 86.8364H150.726C150.726 85.9736 150.31 85.2363 149.818 84.7445C149.326 84.2527 148.589 83.8364 147.726 83.8364V86.8364ZM147.726 86.8364C147.726 86.8303 147.727 86.8236 147.728 86.8172C147.73 86.811 147.731 86.8069 147.732 86.8052C147.733 86.8037 147.732 86.8046 147.73 86.8076C147.728 86.8106 147.725 86.8149 147.719 86.8198C147.714 86.8248 147.709 86.8293 147.703 86.8332C147.697 86.837 147.693 86.8392 147.69 86.8402C147.688 86.8412 147.689 86.8404 147.694 86.8393C147.7 86.8381 147.71 86.8364 147.726 86.8364V89.8364C149.244 89.8364 150.726 88.5681 150.726 86.8364H147.726ZM147.726 86.8364C147.718 86.8364 147.713 86.8357 147.711 86.8353C147.709 86.8349 147.709 86.8347 147.71 86.8351C147.713 86.836 147.716 86.8383 147.72 86.8422C147.724 86.846 147.726 86.8499 147.727 86.8522C147.728 86.8532 147.728 86.853 147.727 86.8511C147.727 86.8492 147.726 86.8445 147.726 86.8364H144.726C144.726 88.5086 146.054 89.8364 147.726 89.8364V86.8364ZM147.726 86.8364C147.726 86.852 147.724 86.8627 147.723 86.8682C147.722 86.8735 147.721 86.8747 147.722 86.8724C147.723 86.87 147.726 86.8655 147.729 86.8597C147.733 86.8539 147.738 86.8482 147.743 86.843C147.748 86.8379 147.752 86.8343 147.755 86.8322C147.758 86.83 147.759 86.8298 147.757 86.8305C147.756 86.8313 147.752 86.8329 147.745 86.8343C147.739 86.8357 147.732 86.8364 147.726 86.8364V83.8364C145.994 83.8364 144.726 85.3188 144.726 86.8364H147.726Z" fill="white"/>
<defs>
<linearGradient id="paint0_linear" x1="165.781" y1="81.8267" x2="125.188" y2="119.581" gradientUnits="userSpaceOnUse">
<stop stop-color="#FFC700" stop-opacity="0.5"/>
<stop offset="1" stop-color="#FFC700"/>
</linearGradient>
<linearGradient id="paint1_linear" x1="25.4069" y1="111.065" x2="86.7226" y2="193.387" gradientUnits="userSpaceOnUse">
<stop stop-color="#FF4D00" stop-opacity="0.25"/>
<stop offset="1" stop-color="#FF4D00"/>
</linearGradient>
<linearGradient id="paint2_linear" x1="80.62" y1="-1.45793e-06" x2="74.9426" y2="81.7543" gradientUnits="userSpaceOnUse">
<stop stop-color="#00A3FF" stop-opacity="0.25"/>
<stop offset="1" stop-color="#00A3FF"/>
</linearGradient>
</defs>
</svg>
