<svg width="242" height="36" viewBox="0 0 242 36" fill="none" xmlns="http://www.w3.org/2000/svg">
<circle cx="13" cy="13" r="13" fill="#FF4D00" fill-opacity="0.5"/>
<circle cx="229" cy="23" r="13" fill="#00A3FF" fill-opacity="0.5"/>
<path d="M21.648 24.056C21.888 24.424 22.136 24.72 22.392 24.944C22.648 25.168 22.976 25.36 23.376 25.52V26C22.256 25.952 21.008 25.928 19.632 25.928C18.576 25.928 17.56 25.952 16.584 26V25.52C17.032 25.488 17.352 25.44 17.544 25.376C17.752 25.312 17.856 25.2 17.856 25.04C17.856 24.912 17.768 24.712 17.592 24.44L14.112 18.8C13.792 18.288 13.52 17.944 13.296 17.768C13.088 17.592 12.8 17.488 12.432 17.456V23.456C12.432 24.064 12.472 24.504 12.552 24.776C12.648 25.048 12.816 25.232 13.056 25.328C13.296 25.424 13.688 25.488 14.232 25.52V26C13.368 25.952 12.16 25.928 10.608 25.928C8.896 25.928 7.632 25.952 6.816 26V25.52C7.344 25.488 7.728 25.424 7.968 25.328C8.224 25.232 8.392 25.048 8.472 24.776C8.568 24.504 8.616 24.064 8.616 23.456V11.552C8.616 10.944 8.568 10.504 8.472 10.232C8.392 9.96 8.224 9.776 7.968 9.68C7.728 9.584 7.344 9.52 6.816 9.488V9.008C7.632 9.056 8.896 9.08 10.608 9.08C12.16 9.08 13.368 9.056 14.232 9.008V9.488C13.688 9.52 13.296 9.584 13.056 9.68C12.816 9.776 12.648 9.96 12.552 10.232C12.472 10.504 12.432 10.944 12.432 11.552V16.952C13.072 16.92 13.656 16.728 14.184 16.376C14.712 16.024 15.312 15.464 15.984 14.696L17.4 12.992C18.136 12.144 18.504 11.4 18.504 10.76C18.504 10.376 18.344 10.072 18.024 9.848C17.72 9.624 17.288 9.496 16.728 9.464V9.008C17.896 9.056 19.08 9.08 20.28 9.08C21.208 9.08 21.96 9.056 22.536 9.008V9.464C21.256 9.768 20.096 10.536 19.056 11.768L16.056 15.344L21.648 24.056ZM27.8368 26.168C26.8128 26.168 26.0448 25.904 25.5328 25.376C25.0368 24.848 24.7888 24.152 24.7888 23.288C24.7888 22.568 24.9728 21.976 25.3408 21.512C25.7248 21.032 26.1808 20.664 26.7088 20.408C27.2528 20.152 27.9408 19.88 28.7728 19.592C29.6528 19.288 30.2928 19.016 30.6928 18.776C31.1088 18.52 31.3168 18.176 31.3168 17.744V15.872C31.3168 15.2 31.1568 14.68 30.8368 14.312C30.5328 13.928 30.0528 13.736 29.3968 13.736C28.6288 13.736 28.0448 13.928 27.6448 14.312C28.0928 14.472 28.4368 14.712 28.6768 15.032C28.9328 15.352 29.0608 15.728 29.0608 16.16C29.0608 16.704 28.8768 17.136 28.5088 17.456C28.1408 17.776 27.6928 17.936 27.1648 17.936C26.6048 17.936 26.1728 17.76 25.8688 17.408C25.5648 17.056 25.4128 16.616 25.4128 16.088C25.4128 15.64 25.5168 15.264 25.7248 14.96C25.9488 14.64 26.2848 14.344 26.7328 14.072C27.1648 13.816 27.6928 13.616 28.3168 13.472C28.9568 13.328 29.6528 13.256 30.4048 13.256C31.1888 13.256 31.8688 13.336 32.4448 13.496C33.0208 13.656 33.5008 13.928 33.8848 14.312C34.2368 14.664 34.4688 15.096 34.5808 15.608C34.7088 16.12 34.7728 16.816 34.7728 17.696V24.224C34.7728 24.608 34.8048 24.88 34.8688 25.04C34.9488 25.2 35.0928 25.28 35.3008 25.28C35.5408 25.28 35.8288 25.144 36.1648 24.872L36.4048 25.28C35.6848 25.872 34.8048 26.168 33.7648 26.168C32.8848 26.168 32.2688 25.992 31.9168 25.64C31.5648 25.288 31.3808 24.816 31.3648 24.224C30.5648 25.52 29.3888 26.168 27.8368 26.168ZM29.6848 24.632C30.3088 24.632 30.8528 24.304 31.3168 23.648V18.728C31.1248 19.048 30.7168 19.4 30.0928 19.784C29.4688 20.184 28.9968 20.584 28.6768 20.984C28.3568 21.384 28.1968 21.96 28.1968 22.712C28.1968 23.368 28.3328 23.856 28.6048 24.176C28.8768 24.48 29.2368 24.632 29.6848 24.632ZM42.9227 13.592H45.7547V14.072H42.9227V23.768C42.9227 24.248 43.0027 24.592 43.1627 24.8C43.3387 24.992 43.6107 25.088 43.9787 25.088C44.6667 25.088 45.2107 24.608 45.6107 23.648L46.0187 23.864C45.4107 25.512 44.3147 26.336 42.7307 26.336C41.6747 26.336 40.8747 26.064 40.3307 25.52C39.9947 25.184 39.7627 24.768 39.6347 24.272C39.5227 23.76 39.4667 23.064 39.4667 22.184V14.072H37.4507V13.592H39.4667V10.424C40.7947 10.424 41.9467 10.168 42.9227 9.656V13.592ZM52.3202 15.488C53.0402 14 54.3442 13.256 56.2322 13.256C57.4802 13.256 58.3602 13.568 58.8722 14.192C59.1442 14.496 59.3362 14.896 59.4482 15.392C59.5762 15.872 59.6402 16.512 59.6402 17.312V23.768C59.6402 24.424 59.7522 24.88 59.9762 25.136C60.2002 25.376 60.6002 25.496 61.1762 25.496V26C59.5122 25.936 58.4562 25.904 58.0082 25.904C57.4642 25.904 56.4242 25.936 54.8882 26V25.496C55.3682 25.496 55.7042 25.376 55.8962 25.136C56.0882 24.88 56.1842 24.424 56.1842 23.768V16.304C56.1842 15.648 56.0722 15.152 55.8482 14.816C55.6402 14.48 55.2562 14.312 54.6962 14.312C54.0242 14.312 53.4562 14.576 52.9922 15.104C52.5442 15.616 52.3202 16.272 52.3202 17.072V23.768C52.3202 24.424 52.4162 24.88 52.6082 25.136C52.8002 25.376 53.1362 25.496 53.6162 25.496V26C52.0802 25.936 51.0882 25.904 50.6402 25.904C50.0962 25.904 48.9922 25.936 47.3282 26V25.496C47.8882 25.496 48.2802 25.376 48.5042 25.136C48.7442 24.88 48.8642 24.424 48.8642 23.768V10.112C48.8642 9.376 48.7442 8.84 48.5042 8.504C48.2802 8.168 47.8882 8 47.3282 8V7.496C47.8402 7.544 48.3362 7.568 48.8162 7.568C50.2082 7.568 51.3762 7.456 52.3202 7.232V15.488ZM70.0658 24.368C71.3778 24.368 72.4338 23.728 73.2338 22.448L73.6658 22.592C73.3458 23.632 72.7698 24.52 71.9378 25.256C71.1218 25.976 70.0978 26.336 68.8658 26.336C67.1698 26.336 65.8178 25.8 64.8098 24.728C63.8178 23.64 63.3218 22.04 63.3218 19.928C63.3218 17.768 63.8578 16.12 64.9298 14.984C66.0018 13.832 67.4258 13.256 69.2018 13.256C72.2098 13.256 73.7138 15.032 73.7138 18.584H66.9698C66.9538 18.824 66.9458 19.2 66.9458 19.712C66.9458 20.768 67.0898 21.648 67.3778 22.352C67.6818 23.056 68.0658 23.568 68.5298 23.888C69.0098 24.208 69.5218 24.368 70.0658 24.368ZM69.0578 13.76C68.4818 13.76 68.0018 14.12 67.6178 14.84C67.2498 15.544 67.0178 16.64 66.9218 18.128H70.6898C70.7218 16.864 70.5938 15.824 70.3058 15.008C70.0338 14.176 69.6178 13.76 69.0578 13.76ZM84.1789 13.256C84.8989 13.256 85.4429 13.472 85.8109 13.904C86.1789 14.336 86.3629 14.856 86.3629 15.464C86.3629 16.056 86.1869 16.544 85.8349 16.928C85.4989 17.296 85.0509 17.48 84.4909 17.48C83.9469 17.48 83.5149 17.344 83.1949 17.072C82.8749 16.784 82.7149 16.408 82.7149 15.944C82.7149 15.176 83.0669 14.552 83.7709 14.072C83.7069 14.056 83.6109 14.048 83.4829 14.048C83.3229 14.048 83.1949 14.064 83.0989 14.096C82.4909 14.192 81.9709 14.56 81.5389 15.2C81.1229 15.84 80.9149 16.496 80.9149 17.168V23.528C80.9149 24.264 81.0909 24.776 81.4429 25.064C81.8109 25.352 82.3869 25.496 83.1709 25.496V26C82.9469 26 82.7629 25.992 82.6189 25.976C80.9869 25.928 79.8989 25.904 79.3549 25.904C78.9229 25.904 77.9389 25.928 76.4029 25.976C76.2749 25.992 76.1149 26 75.9229 26V25.496C76.4989 25.496 76.8989 25.376 77.1229 25.136C77.3469 24.88 77.4589 24.424 77.4589 23.768V16.208C77.4589 15.472 77.3469 14.936 77.1229 14.6C76.8989 14.264 76.4989 14.096 75.9229 14.096V13.592C76.4349 13.64 76.9309 13.664 77.4109 13.664C78.8349 13.664 80.0029 13.552 80.9149 13.328V15.56C81.2189 14.872 81.6589 14.32 82.2349 13.904C82.8109 13.472 83.4589 13.256 84.1789 13.256ZM91.206 7.4C91.878 7.4 92.406 7.568 92.79 7.904C93.19 8.224 93.39 8.672 93.39 9.248C93.39 9.824 93.19 10.28 92.79 10.616C92.406 10.936 91.878 11.096 91.206 11.096C90.534 11.096 89.998 10.936 89.598 10.616C89.214 10.28 89.022 9.824 89.022 9.248C89.022 8.672 89.214 8.224 89.598 7.904C89.998 7.568 90.534 7.4 91.206 7.4ZM93.078 23.768C93.078 24.424 93.19 24.88 93.414 25.136C93.654 25.376 94.054 25.496 94.614 25.496V26C93.014 25.936 91.95 25.904 91.422 25.904C90.926 25.904 89.814 25.936 88.086 26V25.496C88.662 25.496 89.062 25.376 89.286 25.136C89.51 24.88 89.622 24.424 89.622 23.768V16.208C89.622 15.472 89.51 14.936 89.286 14.6C89.062 14.264 88.662 14.096 88.086 14.096V13.592C88.598 13.64 89.094 13.664 89.574 13.664C90.998 13.664 92.166 13.552 93.078 13.328V23.768ZM105.544 13.256C106.76 13.256 107.64 13.568 108.184 14.192C108.456 14.496 108.648 14.888 108.76 15.368C108.872 15.848 108.928 16.496 108.928 17.312V23.768C108.928 24.424 109.04 24.88 109.264 25.136C109.504 25.376 109.904 25.496 110.464 25.496V26C108.864 25.936 107.808 25.904 107.296 25.904C106.816 25.904 105.776 25.936 104.176 26V25.496C104.656 25.496 104.992 25.376 105.184 25.136C105.376 24.88 105.472 24.424 105.472 23.768V16.304C105.472 15.648 105.36 15.152 105.136 14.816C104.928 14.48 104.544 14.312 103.984 14.312C103.328 14.312 102.768 14.584 102.304 15.128C101.84 15.656 101.608 16.312 101.608 17.096V23.768C101.608 24.424 101.704 24.88 101.896 25.136C102.088 25.376 102.424 25.496 102.904 25.496V26C101.432 25.936 100.44 25.904 99.9283 25.904C99.4483 25.904 98.3443 25.936 96.6163 26V25.496C97.1923 25.496 97.5923 25.376 97.8163 25.136C98.0403 24.88 98.1523 24.424 98.1523 23.768V16.208C98.1523 15.472 98.0403 14.936 97.8163 14.6C97.5923 14.264 97.1923 14.096 96.6163 14.096V13.592C97.1283 13.64 97.6243 13.664 98.1043 13.664C99.5283 13.664 100.696 13.552 101.608 13.328V15.488C102.328 14 103.64 13.256 105.544 13.256ZM119.375 24.368C120.687 24.368 121.743 23.728 122.543 22.448L122.975 22.592C122.655 23.632 122.079 24.52 121.247 25.256C120.431 25.976 119.407 26.336 118.175 26.336C116.479 26.336 115.127 25.8 114.119 24.728C113.127 23.64 112.631 22.04 112.631 19.928C112.631 17.768 113.167 16.12 114.239 14.984C115.311 13.832 116.735 13.256 118.511 13.256C121.519 13.256 123.023 15.032 123.023 18.584H116.279C116.263 18.824 116.255 19.2 116.255 19.712C116.255 20.768 116.399 21.648 116.687 22.352C116.991 23.056 117.375 23.568 117.839 23.888C118.319 24.208 118.831 24.368 119.375 24.368ZM118.367 13.76C117.791 13.76 117.311 14.12 116.927 14.84C116.559 15.544 116.327 16.64 116.231 18.128H119.999C120.031 16.864 119.903 15.824 119.615 15.008C119.343 14.176 118.927 13.76 118.367 13.76ZM138.174 8.696C139.006 8.696 139.67 8.776 140.166 8.936C140.662 9.096 141.166 9.328 141.678 9.632C141.854 9.728 142.006 9.808 142.134 9.872C142.278 9.936 142.398 9.968 142.494 9.968C142.638 9.968 142.75 9.888 142.83 9.728C142.91 9.552 142.974 9.28 143.022 8.912H143.574C143.494 9.984 143.454 11.808 143.454 14.384H142.902C142.838 13.52 142.638 12.696 142.302 11.912C141.982 11.128 141.518 10.496 140.91 10.016C140.318 9.52 139.622 9.272 138.822 9.272C138.038 9.272 137.398 9.496 136.902 9.944C136.422 10.376 136.182 10.968 136.182 11.72C136.182 12.28 136.302 12.768 136.542 13.184C136.782 13.6 137.118 13.984 137.55 14.336C137.982 14.672 138.646 15.136 139.542 15.728L140.31 16.256C141.254 16.88 141.998 17.424 142.542 17.888C143.086 18.352 143.526 18.896 143.862 19.52C144.214 20.128 144.39 20.84 144.39 21.656C144.39 22.68 144.126 23.544 143.598 24.248C143.07 24.936 142.35 25.456 141.438 25.808C140.542 26.16 139.542 26.336 138.438 26.336C137.542 26.336 136.798 26.256 136.206 26.096C135.614 25.936 135.07 25.72 134.574 25.448C134.222 25.224 133.95 25.112 133.758 25.112C133.614 25.112 133.502 25.2 133.422 25.376C133.342 25.536 133.278 25.8 133.23 26.168H132.678C132.742 25.16 132.774 23 132.774 19.688H133.326C133.438 21.48 133.838 22.936 134.526 24.056C135.214 25.16 136.27 25.712 137.694 25.712C138.558 25.712 139.27 25.48 139.83 25.016C140.39 24.552 140.67 23.888 140.67 23.024C140.67 22.128 140.382 21.36 139.806 20.72C139.23 20.08 138.318 19.36 137.07 18.56C136.11 17.936 135.342 17.392 134.766 16.928C134.19 16.464 133.718 15.92 133.35 15.296C132.982 14.656 132.798 13.92 132.798 13.088C132.798 12.128 133.038 11.32 133.518 10.664C134.014 9.992 134.67 9.496 135.486 9.176C136.302 8.856 137.198 8.696 138.174 8.696ZM158.861 23.384C158.861 24.12 158.973 24.656 159.197 24.992C159.437 25.328 159.837 25.496 160.397 25.496V26C159.901 25.952 159.405 25.928 158.909 25.928C157.517 25.928 156.349 26.04 155.405 26.264V24.104C154.669 25.592 153.381 26.336 151.541 26.336C150.341 26.336 149.469 26.024 148.925 25.4C148.669 25.096 148.477 24.704 148.349 24.224C148.237 23.728 148.181 23.08 148.181 22.28V16.208C148.181 15.472 148.061 14.936 147.821 14.6C147.597 14.264 147.205 14.096 146.645 14.096V13.592C147.141 13.64 147.637 13.664 148.133 13.664C149.525 13.664 150.693 13.552 151.637 13.328V23.264C151.637 23.936 151.733 24.44 151.925 24.776C152.133 25.112 152.517 25.28 153.077 25.28C153.717 25.28 154.261 25.016 154.709 24.488C155.173 23.944 155.405 23.28 155.405 22.496V16.208C155.405 15.472 155.285 14.936 155.045 14.6C154.821 14.264 154.429 14.096 153.869 14.096V13.592C154.381 13.64 154.877 13.664 155.357 13.664C156.749 13.664 157.917 13.552 158.861 13.328V23.384ZM167.296 13.592H170.128V14.072H167.296V23.768C167.296 24.248 167.376 24.592 167.536 24.8C167.712 24.992 167.984 25.088 168.352 25.088C169.04 25.088 169.584 24.608 169.984 23.648L170.392 23.864C169.784 25.512 168.688 26.336 167.104 26.336C166.048 26.336 165.248 26.064 164.704 25.52C164.368 25.184 164.136 24.768 164.008 24.272C163.896 23.76 163.84 23.064 163.84 22.184V14.072H161.824V13.592H163.84V10.424C165.168 10.424 166.32 10.168 167.296 9.656V13.592ZM174.99 26.168C173.966 26.168 173.198 25.904 172.686 25.376C172.19 24.848 171.942 24.152 171.942 23.288C171.942 22.568 172.126 21.976 172.494 21.512C172.878 21.032 173.334 20.664 173.862 20.408C174.406 20.152 175.094 19.88 175.926 19.592C176.806 19.288 177.446 19.016 177.846 18.776C178.262 18.52 178.47 18.176 178.47 17.744V15.872C178.47 15.2 178.31 14.68 177.99 14.312C177.686 13.928 177.206 13.736 176.55 13.736C175.782 13.736 175.198 13.928 174.798 14.312C175.246 14.472 175.59 14.712 175.83 15.032C176.086 15.352 176.214 15.728 176.214 16.16C176.214 16.704 176.03 17.136 175.662 17.456C175.294 17.776 174.846 17.936 174.318 17.936C173.758 17.936 173.326 17.76 173.022 17.408C172.718 17.056 172.566 16.616 172.566 16.088C172.566 15.64 172.67 15.264 172.878 14.96C173.102 14.64 173.438 14.344 173.886 14.072C174.318 13.816 174.846 13.616 175.47 13.472C176.11 13.328 176.806 13.256 177.558 13.256C178.342 13.256 179.022 13.336 179.598 13.496C180.174 13.656 180.654 13.928 181.038 14.312C181.39 14.664 181.622 15.096 181.734 15.608C181.862 16.12 181.926 16.816 181.926 17.696V24.224C181.926 24.608 181.958 24.88 182.022 25.04C182.102 25.2 182.246 25.28 182.454 25.28C182.694 25.28 182.982 25.144 183.318 24.872L183.558 25.28C182.838 25.872 181.958 26.168 180.918 26.168C180.038 26.168 179.422 25.992 179.07 25.64C178.718 25.288 178.534 24.816 178.518 24.224C177.718 25.52 176.542 26.168 174.99 26.168ZM176.838 24.632C177.462 24.632 178.006 24.304 178.47 23.648V18.728C178.278 19.048 177.87 19.4 177.246 19.784C176.622 20.184 176.15 20.584 175.83 20.984C175.51 21.384 175.35 21.96 175.35 22.712C175.35 23.368 175.486 23.856 175.758 24.176C176.03 24.48 176.39 24.632 176.838 24.632ZM193.46 13.256C194.18 13.256 194.724 13.472 195.092 13.904C195.46 14.336 195.644 14.856 195.644 15.464C195.644 16.056 195.468 16.544 195.116 16.928C194.78 17.296 194.332 17.48 193.772 17.48C193.228 17.48 192.796 17.344 192.476 17.072C192.156 16.784 191.996 16.408 191.996 15.944C191.996 15.176 192.348 14.552 193.052 14.072C192.988 14.056 192.892 14.048 192.764 14.048C192.604 14.048 192.476 14.064 192.38 14.096C191.772 14.192 191.252 14.56 190.82 15.2C190.404 15.84 190.196 16.496 190.196 17.168V23.528C190.196 24.264 190.372 24.776 190.724 25.064C191.092 25.352 191.668 25.496 192.452 25.496V26C192.228 26 192.044 25.992 191.9 25.976C190.268 25.928 189.18 25.904 188.636 25.904C188.204 25.904 187.22 25.928 185.684 25.976C185.556 25.992 185.396 26 185.204 26V25.496C185.78 25.496 186.18 25.376 186.404 25.136C186.628 24.88 186.74 24.424 186.74 23.768V16.208C186.74 15.472 186.628 14.936 186.404 14.6C186.18 14.264 185.78 14.096 185.204 14.096V13.592C185.716 13.64 186.212 13.664 186.692 13.664C188.116 13.664 189.284 13.552 190.196 13.328V15.56C190.5 14.872 190.94 14.32 191.516 13.904C192.092 13.472 192.74 13.256 193.46 13.256ZM201.63 23.768C201.63 24.424 201.742 24.88 201.966 25.136C202.19 25.376 202.59 25.496 203.166 25.496V26C201.502 25.936 200.43 25.904 199.95 25.904C199.406 25.904 198.302 25.936 196.638 26V25.496C197.198 25.496 197.59 25.376 197.814 25.136C198.054 24.88 198.174 24.424 198.174 23.768V10.088C198.174 9.352 198.054 8.816 197.814 8.48C197.59 8.144 197.198 7.976 196.638 7.976V7.472C197.15 7.52 197.646 7.544 198.126 7.544C199.518 7.544 200.686 7.432 201.63 7.208V23.768ZM208.267 7.4C208.939 7.4 209.467 7.568 209.851 7.904C210.251 8.224 210.451 8.672 210.451 9.248C210.451 9.824 210.251 10.28 209.851 10.616C209.467 10.936 208.939 11.096 208.267 11.096C207.595 11.096 207.059 10.936 206.659 10.616C206.275 10.28 206.083 9.824 206.083 9.248C206.083 8.672 206.275 8.224 206.659 7.904C207.059 7.568 207.595 7.4 208.267 7.4ZM210.139 23.768C210.139 24.424 210.251 24.88 210.475 25.136C210.715 25.376 211.115 25.496 211.675 25.496V26C210.075 25.936 209.011 25.904 208.483 25.904C207.987 25.904 206.875 25.936 205.147 26V25.496C205.723 25.496 206.123 25.376 206.347 25.136C206.571 24.88 206.683 24.424 206.683 23.768V16.208C206.683 15.472 206.571 14.936 206.347 14.6C206.123 14.264 205.723 14.096 205.147 14.096V13.592C205.659 13.64 206.155 13.664 206.635 13.664C208.059 13.664 209.227 13.552 210.139 13.328V23.768ZM232.973 23.768C232.973 24.424 233.085 24.88 233.309 25.136C233.549 25.376 233.949 25.496 234.509 25.496V26C232.909 25.936 231.853 25.904 231.341 25.904C230.893 25.904 229.901 25.936 228.365 26V25.496C228.797 25.496 229.093 25.376 229.253 25.136C229.429 24.896 229.517 24.44 229.517 23.768V16.304C229.517 15.632 229.413 15.136 229.205 14.816C229.013 14.48 228.637 14.312 228.077 14.312C227.485 14.312 226.965 14.56 226.517 15.056C226.085 15.552 225.829 16.16 225.749 16.88V17.312V23.768C225.749 24.424 225.845 24.88 226.037 25.136C226.245 25.376 226.613 25.496 227.141 25.496V26C225.605 25.936 224.597 25.904 224.117 25.904C223.669 25.904 222.677 25.936 221.141 26V25.496C221.573 25.496 221.869 25.376 222.029 25.136C222.205 24.88 222.293 24.424 222.293 23.768V16.304C222.293 15.632 222.205 15.136 222.029 14.816C221.853 14.48 221.509 14.312 220.997 14.312C220.357 14.312 219.805 14.584 219.341 15.128C218.893 15.656 218.669 16.312 218.669 17.096V23.768C218.669 24.424 218.749 24.88 218.909 25.136C219.085 25.376 219.389 25.496 219.821 25.496V26C218.413 25.936 217.469 25.904 216.989 25.904C216.509 25.904 215.405 25.936 213.677 26V25.496C214.253 25.496 214.653 25.376 214.877 25.136C215.101 24.88 215.213 24.424 215.213 23.768V16.208C215.213 15.472 215.101 14.936 214.877 14.6C214.653 14.264 214.253 14.096 213.677 14.096V13.592C214.189 13.64 214.685 13.664 215.165 13.664C216.589 13.664 217.757 13.552 218.669 13.328V15.488C219.373 14 220.613 13.256 222.389 13.256C223.605 13.256 224.485 13.568 225.029 14.192C225.333 14.512 225.533 14.992 225.629 15.632C226.045 14.768 226.589 14.16 227.261 13.808C227.933 13.44 228.717 13.256 229.613 13.256C230.829 13.256 231.709 13.568 232.253 14.192C232.509 14.48 232.693 14.872 232.805 15.368C232.917 15.864 232.973 16.512 232.973 17.312V23.768Z" fill="black"/>
<line x1="6" y1="31.5" x2="126" y2="31.5" stroke="#00A3FF" stroke-opacity="0.5"/>
<line x1="115" y1="2.5" x2="235" y2="2.5" stroke="#FF4D00" stroke-opacity="0.5"/>
</svg>
