<svg xmlns="http://www.w3.org/2000/svg" fill="none" viewBox="8.89 21.29 355.22 276.41">
<circle cx="186.5" cy="159.5" r="126" stroke="#514A6F" stroke-width="3"/>
<circle cx="186.5" cy="159.5" r="121" stroke="#FCE183" stroke-width="5"/>
<circle cx="186.5" cy="159.5" r="118" stroke="#514A6F" stroke-width="3"/>
<circle cx="186.5" cy="159.5" r="90" stroke="#514A6F" stroke-width="3"/>
<path d="M143.453 119.688C144.516 119.688 145.266 119.953 145.703 120.484C146.172 120.984 146.406 121.844 146.406 123.062C146.406 124.281 146.172 125.156 145.703 125.688C145.266 126.188 144.516 126.438 143.453 126.438C140.141 126.438 137.531 126.891 135.625 127.797C133.75 128.703 132.422 130.125 131.641 132.062C130.891 133.969 130.578 136.484 130.703 139.609L130.844 142.984C131 146.734 130.203 149.844 128.453 152.312C126.734 154.75 123.891 156.781 119.922 158.406V158.875C123.859 160.031 126.703 161.734 128.453 163.984C130.234 166.203 131.125 169.031 131.125 172.469C131.125 173.156 131.109 173.672 131.078 174.016L130.703 179.688C130.672 180.094 130.656 180.688 130.656 181.469C130.656 185.438 131.672 188.328 133.703 190.141C135.766 191.953 139.016 192.859 143.453 192.859C144.516 192.859 145.266 193.109 145.703 193.609C146.172 194.141 146.406 195.016 146.406 196.234C146.406 197.453 146.172 198.312 145.703 198.812C145.266 199.344 144.516 199.609 143.453 199.609C137.172 199.609 132.281 198.203 128.781 195.391C125.312 192.578 123.578 188.359 123.578 182.734C123.578 181.641 123.609 180.812 123.672 180.25L124.188 174.484C124.25 173.609 124.281 172.984 124.281 172.609C124.281 169.078 123.234 166.438 121.141 164.688C119.047 162.906 115.75 162.016 111.25 162.016C110.188 162.016 109.422 161.766 108.953 161.266C108.516 160.734 108.297 159.859 108.297 158.641C108.297 157.422 108.516 156.562 108.953 156.062C109.422 155.531 110.188 155.266 111.25 155.266C115.594 155.266 118.797 154.281 120.859 152.312C122.922 150.344 123.953 147.547 123.953 143.922C123.953 143.297 123.938 142.828 123.906 142.516L123.672 139.047C123.609 138.109 123.578 137.438 123.578 137.031C123.578 131.25 125.297 126.922 128.734 124.047C132.203 121.141 137.109 119.688 143.453 119.688ZM229.234 119.688C235.578 119.688 240.469 121.141 243.906 124.047C247.375 126.922 249.109 131.25 249.109 137.031C249.109 137.438 249.078 138.109 249.016 139.047L248.781 142.516C248.75 142.828 248.734 143.297 248.734 143.922C248.734 147.547 249.766 150.344 251.828 152.312C253.891 154.281 257.094 155.266 261.438 155.266C262.5 155.266 263.25 155.531 263.688 156.062C264.156 156.562 264.391 157.422 264.391 158.641C264.391 159.859 264.156 160.734 263.688 161.266C263.25 161.766 262.5 162.016 261.438 162.016C256.938 162.016 253.641 162.906 251.547 164.688C249.453 166.438 248.406 169.078 248.406 172.609C248.406 172.984 248.438 173.609 248.5 174.484L249.016 180.25C249.078 180.812 249.109 181.641 249.109 182.734C249.109 188.359 247.359 192.578 243.859 195.391C240.391 198.203 235.516 199.609 229.234 199.609C228.172 199.609 227.406 199.344 226.938 198.812C226.5 198.312 226.281 197.453 226.281 196.234C226.281 195.016 226.5 194.141 226.938 193.609C227.406 193.109 228.172 192.859 229.234 192.859C233.672 192.859 236.906 191.953 238.938 190.141C241 188.328 242.031 185.438 242.031 181.469C242.031 180.688 242.016 180.094 241.984 179.688L241.609 174.016C241.578 173.672 241.562 173.156 241.562 172.469C241.562 169.031 242.438 166.203 244.188 163.984C245.969 161.734 248.828 160.031 252.766 158.875V158.406C248.797 156.781 245.938 154.75 244.188 152.312C242.469 149.844 241.688 146.734 241.844 142.984L241.984 139.609C242.109 136.484 241.781 133.969 241 132.062C240.25 130.125 238.922 128.703 237.016 127.797C235.141 126.891 232.547 126.438 229.234 126.438C228.172 126.438 227.406 126.188 226.938 125.688C226.5 125.156 226.281 124.281 226.281 123.062C226.281 121.844 226.5 120.984 226.938 120.484C227.406 119.953 228.172 119.688 229.234 119.688Z" fill="#5E43CA"/>
<path d="M183.312 139.906C183.812 139.906 184.198 140 184.469 140.188C184.74 140.354 184.938 140.667 185.062 141.125C185.208 141.583 185.281 142.25 185.281 143.125C185.281 144 185.208 144.667 185.062 145.125C184.938 145.583 184.74 145.896 184.469 146.062C184.198 146.229 183.812 146.312 183.312 146.312H181.969L171.031 156.969C172.198 157.031 173.26 157.354 174.219 157.938C175.177 158.5 176.01 159.281 176.719 160.281C177.198 160.969 177.635 161.688 178.031 162.438C178.427 163.167 178.875 164.062 179.375 165.125C180.125 166.667 180.646 167.688 180.938 168.188C181.396 168.958 181.875 169.552 182.375 169.969C182.875 170.385 183.448 170.594 184.094 170.594H184.406C184.906 170.594 185.292 170.688 185.562 170.875C185.833 171.042 186.031 171.354 186.156 171.812C186.302 172.271 186.375 172.938 186.375 173.812C186.375 174.688 186.302 175.354 186.156 175.812C186.031 176.271 185.833 176.583 185.562 176.75C185.292 176.917 184.906 177 184.406 177H180.062C178.792 177 177.708 176.615 176.812 175.844C175.938 175.052 175.125 173.958 174.375 172.562C173.896 171.667 173.396 170.625 172.875 169.438C172.5 168.646 172.115 167.854 171.719 167.062C171.323 166.271 170.958 165.615 170.625 165.094C170.083 164.281 169.479 163.646 168.812 163.188C168.146 162.708 167.458 162.469 166.75 162.469C165.833 162.469 165.01 162.823 164.281 163.531L162.688 165.094V170.594H166.281C166.781 170.594 167.167 170.688 167.438 170.875C167.708 171.042 167.906 171.354 168.031 171.812C168.177 172.271 168.25 172.938 168.25 173.812C168.25 174.688 168.177 175.354 168.031 175.812C167.906 176.271 167.708 176.583 167.438 176.75C167.167 176.917 166.781 177 166.281 177H151.531C151.031 177 150.646 176.917 150.375 176.75C150.104 176.583 149.896 176.271 149.75 175.812C149.625 175.354 149.562 174.688 149.562 173.812C149.562 172.938 149.625 172.271 149.75 171.812C149.896 171.354 150.104 171.042 150.375 170.875C150.646 170.688 151.031 170.594 151.531 170.594H154.875V146.312H151.531C151.031 146.312 150.646 146.229 150.375 146.062C150.104 145.896 149.896 145.583 149.75 145.125C149.625 144.667 149.562 144 149.562 143.125C149.562 142.25 149.625 141.583 149.75 141.125C149.896 140.667 150.104 140.354 150.375 140.188C150.646 140 151.031 139.906 151.531 139.906H164.156C164.656 139.906 165.042 140 165.312 140.188C165.583 140.354 165.781 140.667 165.906 141.125C166.052 141.583 166.125 142.25 166.125 143.125C166.125 144 166.052 144.667 165.906 145.125C165.781 145.583 165.583 145.896 165.312 146.062C165.042 146.229 164.656 146.312 164.156 146.312H162.688V156.312L172.812 146.312H171.156C170.656 146.312 170.271 146.229 170 146.062C169.729 145.896 169.521 145.583 169.375 145.125C169.25 144.667 169.188 144 169.188 143.125C169.188 142.25 169.25 141.583 169.375 141.125C169.521 140.667 169.729 140.354 170 140.188C170.271 140 170.656 139.906 171.156 139.906H183.312ZM215 139.219C216.333 139.219 217.281 139.375 217.844 139.688C218.406 139.979 218.688 140.479 218.688 141.188V149.75C218.688 150.458 218.458 150.969 218 151.281C217.562 151.573 216.833 151.719 215.812 151.719C215.125 151.719 214.583 151.635 214.188 151.469C213.792 151.302 213.479 151.052 213.25 150.719C212.271 149.177 211.01 147.99 209.469 147.156C207.927 146.302 206.146 145.875 204.125 145.875C202.604 145.875 201.406 146.26 200.531 147.031C199.677 147.802 199.25 148.802 199.25 150.031C199.25 150.635 199.438 151.135 199.812 151.531C200.188 151.906 200.729 152.24 201.438 152.531C202.354 152.885 203.927 153.25 206.156 153.625C208.323 154.042 210.094 154.438 211.469 154.812C212.844 155.167 214.135 155.719 215.344 156.469C218.677 158.49 220.344 161.75 220.344 166.25C220.344 168.542 219.854 170.542 218.875 172.25C217.917 173.958 216.469 175.292 214.531 176.25C212.594 177.208 210.208 177.688 207.375 177.688C203.896 177.688 200.948 176.635 198.531 174.531V175.719C198.531 176.427 198.271 176.927 197.75 177.219C197.25 177.531 196.344 177.688 195.031 177.688C193.698 177.688 192.75 177.531 192.188 177.219C191.625 176.927 191.344 176.427 191.344 175.719V165.281C191.344 164.573 191.562 164.073 192 163.781C192.458 163.469 193.198 163.312 194.219 163.312C194.948 163.312 195.521 163.406 195.938 163.594C196.375 163.781 196.708 164.104 196.938 164.562C198.062 166.708 199.406 168.323 200.969 169.406C202.531 170.49 204.354 171.031 206.438 171.031C208.271 171.031 209.667 170.656 210.625 169.906C211.583 169.156 212.062 168.115 212.062 166.781C212.062 165.948 211.844 165.25 211.406 164.688C210.99 164.104 210.375 163.615 209.562 163.219C208.896 162.885 208.156 162.615 207.344 162.406C206.552 162.198 205.375 161.927 203.812 161.594C202.021 161.219 200.542 160.875 199.375 160.562C198.208 160.25 197.115 159.823 196.094 159.281C194.51 158.448 193.271 157.344 192.375 155.969C191.479 154.573 191.031 152.771 191.031 150.562C191.031 148.354 191.542 146.396 192.562 144.688C193.583 142.958 195.01 141.615 196.844 140.656C198.698 139.698 200.812 139.219 203.188 139.219C204.854 139.219 206.396 139.49 207.812 140.031C209.229 140.573 210.458 141.344 211.5 142.344V141.188C211.5 140.479 211.75 139.979 212.25 139.688C212.771 139.375 213.688 139.219 215 139.219Z" fill="#5E43CA"/>
<path d="M53 169.976C23.5957 150.351 7.62033 129.69 12.1504 112.783C21.0843 79.4415 106.386 73.3286 202.676 99.1296C298.967 124.931 369.784 172.875 360.85 206.217C356.303 223.183 331.982 233.099 296.5 235.347" stroke="#FCE183" stroke-width="5"/>
<path d="M65.4273 219C50.4267 250.266 47.296 275.696 59.5938 287.855C84.1397 312.124 160.856 274.331 230.944 203.443C301.033 132.554 337.952 55.4137 313.406 31.1448C301.158 19.0353 275.921 22.3776 245 37.5733" stroke="#FCE183" stroke-width="5"/>
</svg>